<?xml version="1.0" encoding="UTF-8" standalone="no"?>
<!-- Generator: Adobe Illustrator 19.0.0, SVG Export Plug-In . SVG Version: 6.00 Build 0)  -->

<svg
   xmlns:dc="http://purl.org/dc/elements/1.1/"
   xmlns:cc="http://creativecommons.org/ns#"
   xmlns:rdf="http://www.w3.org/1999/02/22-rdf-syntax-ns#"
   xmlns:svg="http://www.w3.org/2000/svg"
   xmlns="http://www.w3.org/2000/svg"
   xmlns:sodipodi="http://sodipodi.sourceforge.net/DTD/sodipodi-0.dtd"
   xmlns:inkscape="http://www.inkscape.org/namespaces/inkscape"
   version="1.1"
   id="Capa_1"
   x="0px"
   y="0px"
   viewBox="0 0 512 512"
   style="enable-background:new 0 0 512 512;"
   xml:space="preserve"
   sodipodi:docname="bell_notification2.svg"
   inkscape:version="0.92.4 (5da689c313, 2019-01-14)"><metadata
   id="metadata57"><rdf:RDF><cc:Work
       rdf:about=""><dc:format>image/svg+xml</dc:format><dc:type
         rdf:resource="http://purl.org/dc/dcmitype/StillImage" /><dc:title></dc:title></cc:Work></rdf:RDF></metadata><defs
   id="defs55">
	
	
</defs><sodipodi:namedview
   pagecolor="#ffffff"
   bordercolor="#666666"
   borderopacity="1"
   objecttolerance="10"
   gridtolerance="10"
   guidetolerance="10"
   inkscape:pageopacity="0"
   inkscape:pageshadow="2"
   inkscape:window-width="1801"
   inkscape:window-height="944"
   id="namedview53"
   showgrid="false"
   inkscape:zoom="1.3037281"
   inkscape:cx="143.16009"
   inkscape:cy="362.89919"
   inkscape:window-x="495"
   inkscape:window-y="304"
   inkscape:window-maximized="0"
   inkscape:current-layer="Capa_1" />








<g
   id="g22">
</g>
<g
   id="g24">
</g>
<g
   id="g26">
</g>
<g
   id="g28">
</g>
<g
   id="g30">
</g>
<g
   id="g32">
</g>
<g
   id="g34">
</g>
<g
   id="g36">
</g>
<g
   id="g38">
</g>
<g
   id="g40">
</g>
<g
   id="g42">
</g>
<g
   id="g44">
</g>
<g
   id="g46">
</g>
<g
   id="g48">
</g>
<g
   id="g50">
</g>
<path
   style="fill:#ffffff;opacity:1"
   d="M 256 0 A 256 256 0 0 0 0 256 A 256 256 0 0 0 256 512 A 256 256 0 0 0 512 256 A 256 256 0 0 0 256 0 z M 255.95117 54.667969 L 256 54.667969 C 261.02644 54.667969 265.68943 56.216207 269.54492 58.857422 A 24 24 0 0 1 269.55078 58.861328 C 269.55422 58.863683 269.55711 58.866784 269.56055 58.869141 C 270.20814 59.313548 270.83197 59.78881 271.43164 60.292969 A 24 24 0 0 1 271.50781 60.357422 C 272.08376 60.845721 272.6367 61.360637 273.16406 61.900391 A 24 24 0 0 1 273.28711 62.029297 C 273.79646 62.558359 274.2827 63.109652 274.74219 63.683594 A 24 24 0 0 1 274.86328 63.837891 C 275.32236 64.420988 275.75383 65.0255 276.1582 65.650391 A 24 24 0 0 1 276.22656 65.757812 C 276.63995 66.404124 277.02383 67.071236 277.375 67.757812 A 24 24 0 0 1 277.40039 67.806641 C 277.75504 68.503967 278.07489 69.220525 278.36133 69.955078 A 24 24 0 0 1 278.36914 69.972656 C 278.37116 69.977842 278.37299 69.983093 278.375 69.988281 C 278.66112 70.725302 278.91167 71.479778 279.125 72.25 C 279.33032 72.99133 279.50066 73.747323 279.63477 74.515625 A 24 24 0 0 1 279.6582 74.648438 C 279.78056 75.373576 279.87002 76.109781 279.92578 76.855469 A 24 24 0 0 1 279.94336 77.109375 C 279.97649 77.625443 280 78.143532 280 78.667969 A 24 24 0 0 0 280 78.669922 L 280 78.681641 C 279.99957 79.431711 279.95696 80.172084 279.88867 80.904297 A 24 24 0 0 1 279.80078 81.595703 C 279.73648 82.119135 279.66196 82.63795 279.56445 83.150391 A 24 24 0 0 1 279.40625 83.890625 C 279.2968 84.380751 279.17393 84.865341 279.03516 85.34375 A 24 24 0 0 1 278.81055 86.082031 C 278.75849 86.242117 278.71934 86.407798 278.66406 86.566406 C 331.50722 97.097123 371.33203 143.72896 371.33203 199.66797 L 371.33398 320.99414 C 373.12173 321.46918 374.86237 322.06147 376.54102 322.77148 L 376.54297 322.77148 C 378.90522 323.77077 381.14907 324.99274 383.25 326.41211 L 383.25195 326.41211 C 383.77685 326.76676 384.29231 327.13487 384.79883 327.51367 L 384.80078 327.51367 C 385.3073 327.89251 385.8037 328.28533 386.29102 328.6875 L 386.29297 328.6875 C 386.78028 329.0897 387.25733 329.50303 387.72461 329.92773 L 387.72656 329.92773 C 388.19385 330.35247 388.64928 330.7899 389.0957 331.23633 C 389.98958 332.13015 390.84119 333.06523 391.64648 334.04102 C 393.65896 336.47957 395.38467 339.1649 396.77148 342.04297 C 397.60357 343.76981 398.31356 345.56659 398.89062 347.42188 C 399.4677 349.27714 399.91124 351.19095 400.21094 353.15234 C 400.41074 354.45994 400.54698 355.78829 400.61523 357.13477 C 400.64936 357.808 400.66797 358.48625 400.66797 359.16797 L 400.66797 374.08398 L 400.66797 389 L 400.66602 389 L 255.95117 389 L 235.61133 389 A 43 43 0 0 1 235.66992 390.66992 A 43 43 0 0 1 192.66992 433.66992 A 43 43 0 0 1 149.66992 390.66992 A 43 43 0 0 1 149.75391 389 L 111.33203 389 L 111.33203 359.16797 C 111.33203 340.86825 123.78004 325.48 140.66797 320.99414 L 140.66797 199.66797 C 140.66797 143.71971 180.50707 97.081074 233.36328 86.560547 A 24 24 0 0 1 232 78.669922 A 24 24 0 0 1 255.95117 54.671875 L 255.95117 54.667969 z "
   id="circle2" /></svg>