<?xml version="1.0" encoding="UTF-8" standalone="no"?>
<!-- Generator: Adobe Illustrator 19.0.0, SVG Export Plug-In . SVG Version: 6.00 Build 0)  -->

<svg
   xmlns:dc="http://purl.org/dc/elements/1.1/"
   xmlns:cc="http://creativecommons.org/ns#"
   xmlns:rdf="http://www.w3.org/1999/02/22-rdf-syntax-ns#"
   xmlns:svg="http://www.w3.org/2000/svg"
   xmlns="http://www.w3.org/2000/svg"
   xmlns:sodipodi="http://sodipodi.sourceforge.net/DTD/sodipodi-0.dtd"
   xmlns:inkscape="http://www.inkscape.org/namespaces/inkscape"
   version="1.1"
   id="Capa_1"
   x="0px"
   y="0px"
   viewBox="0 0 512 512"
   style="enable-background:new 0 0 512 512;"
   xml:space="preserve"
   sodipodi:docname="bell_notification.svg"
   inkscape:version="0.92.4 (5da689c313, 2019-01-14)"><metadata
   id="metadata57"><rdf:RDF><cc:Work
       rdf:about=""><dc:format>image/svg+xml</dc:format><dc:type
         rdf:resource="http://purl.org/dc/dcmitype/StillImage" /><dc:title></dc:title></cc:Work></rdf:RDF></metadata><defs
   id="defs55" /><sodipodi:namedview
   pagecolor="#ffffff"
   bordercolor="#666666"
   borderopacity="1"
   objecttolerance="10"
   gridtolerance="10"
   guidetolerance="10"
   inkscape:pageopacity="0"
   inkscape:pageshadow="2"
   inkscape:window-width="1839"
   inkscape:window-height="1061"
   id="namedview53"
   showgrid="false"
   inkscape:zoom="1.84375"
   inkscape:cx="140.33407"
   inkscape:cy="311.89966"
   inkscape:window-x="64"
   inkscape:window-y="121"
   inkscape:window-maximized="0"
   inkscape:current-layer="Capa_1" />
<circle
   inkscape:export-ydpi="3"
   inkscape:export-xdpi="3"
   id="circle2"
   r="256"
   cy="256"
   cx="256"
   style="fill:#000000;opacity:1" />






<g
   id="g3770"><g
     style="fill:#ffffff"
     id="g10">
	<circle
   id="circle6"
   r="43"
   cy="390.67"
   cx="192.67"
   style="fill:#ffffff" />
	<circle
   id="circle8"
   r="24"
   cy="78.67"
   cx="256"
   style="fill:#ffffff" />
</g><path
     id="path12"
     d="M256,54.667c-0.016,0-0.032,0.001-0.048,0.001v47.998c0.016,0,0.032,0.001,0.048,0.001  c13.255,0,24-10.745,24-24S269.255,54.667,256,54.667z"
     style="fill:#ffffff" /><path
     id="path14"
     d="M371.333,372.333H140.667V199.667c0-63.697,51.636-115.333,115.333-115.333l0,0  c63.697,0,115.333,51.636,115.333,115.333V372.333z"
     style="fill:#ffffff" /><path
     id="path16"
     d="M371.333,199.667c0-63.697-51.636-115.333-115.333-115.333l0,0c-0.016,0-0.032,0.001-0.047,0.001  v287.999h115.381L371.333,199.667L371.333,199.667z"
     style="fill:#ffffff" /><path
     id="path18"
     d="M400.667,389H111.333v-29.833c0-21.815,17.685-39.5,39.5-39.5h210.333  c21.815,0,39.5,17.685,39.5,39.5L400.667,389L400.667,389z"
     style="fill:#ffffff" /><path
     id="path20"
     d="M400.667,359.167c0-21.815-17.685-39.5-39.5-39.5H255.952V389h144.714L400.667,359.167  L400.667,359.167z"
     style="fill:#ffffff" /></g>
<g
   id="g22">
</g>
<g
   id="g24">
</g>
<g
   id="g26">
</g>
<g
   id="g28">
</g>
<g
   id="g30">
</g>
<g
   id="g32">
</g>
<g
   id="g34">
</g>
<g
   id="g36">
</g>
<g
   id="g38">
</g>
<g
   id="g40">
</g>
<g
   id="g42">
</g>
<g
   id="g44">
</g>
<g
   id="g46">
</g>
<g
   id="g48">
</g>
<g
   id="g50">
</g>
</svg>