<?xml version="1.0" encoding="iso-8859-1"?>
<!-- Generator: Adobe Illustrator 19.0.0, SVG Export Plug-In . SVG Version: 6.00 Build 0)  -->
<svg version="1.1" id="Capa_1" xmlns="http://www.w3.org/2000/svg" xmlns:xlink="http://www.w3.org/1999/xlink" x="0px" y="0px"
	 viewBox="0 0 512 512" style="enable-background:new 0 0 512 512;" xml:space="preserve">
<circle style="fill:#1E499E;" cx="256" cy="256" r="256"/>
<path style="fill:#0E387C;" d="M509.706,290.298L338.835,119.426l-3.41,4.804l-63.597-63.597L111.333,389l121.989,121.989
	C240.796,511.645,248.356,512,256,512C385.753,512,492.945,415.463,509.706,290.298z"/>
<g>
	<circle style="fill:#FEF076;" cx="192.67" cy="390.67" r="43"/>
	<circle style="fill:#FEF076;" cx="256" cy="78.67" r="24"/>
</g>
<path style="fill:#FED500;" d="M256,54.667c-0.016,0-0.032,0.001-0.048,0.001v47.998c0.016,0,0.032,0.001,0.048,0.001
	c13.255,0,24-10.745,24-24S269.255,54.667,256,54.667z"/>
<path style="fill:#FEA626;" d="M371.333,372.333H140.667V199.667c0-63.697,51.636-115.333,115.333-115.333l0,0
	c63.697,0,115.333,51.636,115.333,115.333V372.333z"/>
<path style="fill:#F47C00;" d="M371.333,199.667c0-63.697-51.636-115.333-115.333-115.333l0,0c-0.016,0-0.032,0.001-0.047,0.001
	v287.999h115.381L371.333,199.667L371.333,199.667z"/>
<path style="fill:#F8A725;" d="M400.667,389H111.333v-29.833c0-21.815,17.685-39.5,39.5-39.5h210.333
	c21.815,0,39.5,17.685,39.5,39.5L400.667,389L400.667,389z"/>
<path style="fill:#F47F17;" d="M400.667,359.167c0-21.815-17.685-39.5-39.5-39.5H255.952V389h144.714L400.667,359.167
	L400.667,359.167z"/>
<g>
</g>
<g>
</g>
<g>
</g>
<g>
</g>
<g>
</g>
<g>
</g>
<g>
</g>
<g>
</g>
<g>
</g>
<g>
</g>
<g>
</g>
<g>
</g>
<g>
</g>
<g>
</g>
<g>
</g>
</svg>
